<svg width="44" height="44" viewBox="0 0 44 44" fill="none" xmlns="http://www.w3.org/2000/svg">
<path d="M21.8625 40.8375C12.2719 40.8375 1.92499 34.8219 1.92499 21.6219C1.92499 8.42188 12.2719 2.40625 21.8625 2.40625C27.1906 2.40625 32.1062 4.15937 35.75 7.35625C39.7031 10.8625 41.8 15.8125 41.8 21.6219C41.8 27.4313 39.7031 32.3469 35.75 35.8531C32.1062 39.05 27.1562 40.8375 21.8625 40.8375Z" fill="url(#paint0_radial_3278_2287)"/>
<path d="M8.64533 24.2584C9.22626 25.5544 9.99283 26.7644 10.9175 27.8437C11.8319 28.9094 12.8941 29.8341 14.0731 30.5937C15.2453 31.3569 16.5172 31.9516 17.8544 32.3572C20.5481 33.144 23.4107 33.144 26.1044 32.3572C27.4416 31.9516 28.7135 31.3569 29.8856 30.5937C31.0785 29.8375 32.1578 28.9094 33.0825 27.8437C34.0072 26.7678 34.7703 25.5681 35.3547 24.2756C35.5609 23.9009 36.0284 23.7634 36.4031 23.9697C36.7125 24.1416 36.8706 24.4991 36.7813 24.8428C36.2272 26.3281 35.4481 27.7193 34.4713 28.9678C32.9855 30.8541 31.0913 32.3789 28.9312 33.4275C26.771 34.476 24.4012 35.0209 22 35.0212C19.5982 35.0204 17.228 34.4745 15.0677 33.4247C12.9075 32.375 11.0136 30.8487 9.52876 28.9609C8.55195 27.7124 7.77285 26.3212 7.21876 24.8359C7.0572 24.4441 7.24282 23.9903 7.6347 23.8287C8.02657 23.6672 8.48033 23.8528 8.64189 24.2447L8.64533 24.2584Z" fill="#422B0D"/>
<path d="M38.3247 10.199C40.1569 13.1553 41.1125 16.6753 41.1125 20.5906C41.1125 26.4 39.0156 31.3156 35.0625 34.8218C31.4187 38.0187 26.4687 39.8062 21.175 39.8062C14.9668 39.8062 8.45622 37.2797 4.6131 31.9206C8.31185 37.9912 15.2693 40.8375 21.8625 40.8375C27.1562 40.8375 32.1062 39.05 35.75 35.8531C39.7031 32.3468 41.8 27.4312 41.8 21.6218C41.8 17.2425 40.6072 13.3512 38.3247 10.199Z" fill="#EB8F00"/>
<path d="M17.2391 19.2844L17.1875 19.2087L17.1153 19.1159C17.0878 19.0781 17.0603 19.0472 17.0259 19.0162L16.8128 18.8031C16.7269 18.7172 16.6237 18.6244 16.5172 18.5316C16.2903 18.3356 16.0359 18.1775 15.7609 18.0537C15.4928 17.9334 15.2006 17.875 14.9084 17.875H14.7812C14.7484 17.868 14.7144 17.868 14.6816 17.875C14.6197 17.8819 14.5578 17.8922 14.4959 17.9059C14.3516 17.9403 14.2141 17.985 14.0766 18.04C13.8016 18.1637 13.5472 18.3219 13.3203 18.5178C13.1347 18.6759 12.9628 18.8444 12.8012 19.0231L12.6053 19.2431L12.5022 19.36C12.3061 19.5914 12.0261 19.7355 11.7238 19.7606C11.4215 19.7857 11.1216 19.6899 10.89 19.4941C10.7102 19.3415 10.5817 19.1372 10.522 18.909C10.4624 18.6808 10.4744 18.4398 10.5566 18.2187L10.5944 18.1087C10.6287 18.0022 10.67 17.8991 10.7147 17.7959C10.8797 17.4212 11.0894 17.0706 11.3437 16.7509C11.9453 15.9569 12.7909 15.3794 13.75 15.1044C13.9459 15.0528 14.1453 15.015 14.3481 14.9875C14.4512 14.9875 14.6025 14.9566 14.6472 14.9566H14.9084C15.3003 14.9634 15.6887 15.0184 16.0669 15.1181C16.4278 15.2178 16.775 15.3622 17.0981 15.5478C17.6309 15.8572 18.0984 16.2731 18.4731 16.7647C18.6175 16.9503 18.7481 17.1428 18.8616 17.3491C18.9544 17.5106 19.0369 17.6756 19.1091 17.8441C19.1366 17.8991 19.1606 17.9575 19.1778 18.0159C19.1778 18.0606 19.2053 18.0984 19.2156 18.1294L19.25 18.2187C19.4459 18.8272 19.1125 19.4803 18.5041 19.6762C18.0434 19.8206 17.5381 19.6625 17.2391 19.2844ZM32.1337 19.2844L32.0719 19.2087L31.9997 19.1159C31.9722 19.0781 31.9447 19.0472 31.9103 19.0162L31.6972 18.8031C31.6112 18.7172 31.5081 18.6244 31.4016 18.5316C31.1747 18.3356 30.9203 18.1775 30.6453 18.0537C30.3806 17.9369 30.0919 17.875 29.8031 17.875H29.6622C29.6293 17.868 29.5954 17.868 29.5625 17.875C29.5006 17.8819 29.4387 17.8922 29.3769 17.9059C29.2325 17.9403 29.095 17.985 28.9575 18.04C28.6791 18.1672 28.4178 18.3322 28.1875 18.5316C28.0019 18.6897 27.83 18.8581 27.665 19.0369L27.5 19.25L27.3969 19.3669C27.3053 19.4862 27.191 19.5862 27.0606 19.6612C26.9302 19.7362 26.7863 19.7846 26.6371 19.8038C26.4879 19.823 26.3364 19.8124 26.1913 19.7729C26.0462 19.7333 25.9103 19.6654 25.7916 19.5731C25.5905 19.4187 25.4466 19.2018 25.3825 18.9566C25.3184 18.7114 25.3377 18.4518 25.4375 18.2187L25.4753 18.1087C25.5097 18.0022 25.5509 17.8991 25.5956 17.7959C25.7572 17.4178 25.9703 17.0637 26.2212 16.7372C26.8228 15.9431 27.6684 15.3656 28.6275 15.0906C28.8234 15.0391 29.0228 15.0012 29.2256 14.9737C29.3287 14.9737 29.4766 14.9428 29.5247 14.9428H29.7859C30.1778 14.9497 30.5662 15.0047 30.9444 15.1044C31.3053 15.2041 31.6525 15.3484 31.9756 15.5341C32.5084 15.8434 32.9759 16.2594 33.3506 16.7509C33.495 16.9366 33.6256 17.1291 33.7391 17.3353C33.8319 17.4969 33.9144 17.6619 33.9866 17.8303C34.0141 17.8853 34.0381 17.9437 34.0553 18.0022L34.0931 18.1156L34.1241 18.2084C34.32 18.8169 33.9866 19.4666 33.3781 19.6625C32.9209 19.8103 32.4225 19.6591 32.1234 19.2844H32.1337Z" fill="#422B0D"/>
<path d="M29.7928 30.6865C29.5075 30.8653 29.2187 31.0303 28.9231 31.1953C29.2669 31.0097 29.6106 30.8137 29.9269 30.6041L29.7928 30.6865ZM25.4375 32.5462C25.6678 32.4912 25.8981 32.4328 26.125 32.3641C25.905 32.4362 25.6747 32.4878 25.4375 32.5462ZM26.125 32.3675C26.4447 32.2747 26.7541 32.1681 27.0634 32.0512C26.7609 32.1681 26.4688 32.2747 26.125 32.3675ZM31.6972 29.2531C31.4875 29.4387 31.2709 29.6175 31.0475 29.7859C30.9375 29.8753 30.8241 29.9578 30.7037 30.0437C30.4459 30.2397 30.1847 30.4287 29.9166 30.6041C30.2603 30.3875 30.5697 30.1537 30.8859 29.9166C31.2022 29.6794 31.4394 29.4834 31.6972 29.2531Z" fill="#FF4081"/>
<path opacity="0.3" d="M32.3675 28.6035C32.3434 28.6275 32.3228 28.6516 32.2987 28.6722C32.1062 28.875 31.9034 29.0675 31.6972 29.2531C31.9137 29.0606 32.1234 28.8613 32.3228 28.6516L32.3675 28.6035Z" fill="#AB3F2E"/>
<path d="M23.4953 32.8762L24.7706 34.2306L24.8944 34.3578L23.4953 32.8762Z" fill="#FF4081"/>
<path opacity="0.3" d="M24.8943 34.3578L25.2003 34.6878L25.2037 34.6844V34.6809L24.8943 34.3578Z" fill="#AB3F2E"/>
<path d="M37.6818 30.6316L35.2756 28.1153L35.1793 28.0156L34.2581 27.0531L33.9865 26.7678L33.9522 26.7335C33.6806 27.1185 33.3918 27.4897 33.0825 27.8438C32.1681 28.9094 31.1059 29.8341 29.9268 30.5938C28.7561 31.3574 27.483 31.9511 26.1456 32.3572C25.2862 32.6116 24.4028 32.78 23.509 32.866L24.8943 34.375L25.2037 34.6981L25.4512 34.956L25.5922 35.1038L29.1465 38.8163C31.2056 40.9681 34.619 41.0438 36.7709 38.9847L37.5134 38.2731C39.6687 36.2141 39.7512 32.8006 37.6922 30.6419L37.6818 30.6316Z" fill="#FF4081"/>
<path d="M32.8865 33.2166L30.2019 30.4081C30.109 30.4735 30.0197 30.5422 29.9269 30.6041C29.6415 30.7863 29.3528 30.9478 29.0606 31.1231L31.9344 34.1275C32.0547 34.2547 32.2197 34.3269 32.395 34.3303C32.5703 34.3372 32.7387 34.2719 32.8659 34.1481C33.1272 33.9006 33.1409 33.4881 32.8934 33.2235L32.8865 33.2166Z" fill="#E62B6B"/>
<path opacity="0.3" d="M34.2409 27.0394L33.9693 26.754L33.935 26.7197C33.6703 27.1081 33.385 27.4828 33.0825 27.8437C32.1681 28.9094 31.1059 29.834 29.9268 30.5937C28.7561 31.3574 27.483 31.9511 26.1456 32.3572C25.2862 32.6115 24.4028 32.78 23.509 32.8659L24.8943 34.375L25.2037 34.6981C31.6009 32.3778 33.8181 28.0878 34.2409 27.0394Z" fill="#AB3F2E"/>
<defs>
<radialGradient id="paint0_radial_3278_2287" cx="0" cy="0" r="1" gradientUnits="userSpaceOnUse" gradientTransform="translate(21.8625 21.6219) scale(19.58)">
<stop offset="0.5" stop-color="#FDE030"/>
<stop offset="0.92" stop-color="#F7C02B"/>
<stop offset="1" stop-color="#F4A223"/>
</radialGradient>
</defs>
</svg>
