<svg width="24" height="24" viewBox="0 0 24 24" fill="none" xmlns="http://www.w3.org/2000/svg">
<path d="M18.4856 9.59252C17.6925 9.76502 17.0081 10.2075 16.6875 10.9706C16.4944 11.4338 16.2244 12.63 15.4838 12.3206C15.1294 12.1744 15.135 11.6663 15.1763 11.3494C15.2644 10.6988 15.5569 10.1044 15.7575 9.48564C15.9638 8.84439 16.1419 8.19939 16.2694 7.53564C16.6969 5.33814 16.5788 2.80689 15.0244 1.05002C14.7619 0.750018 14.1 0.0562678 13.6631 0.0412678C13.3931 0.0337678 13.6594 0.352518 13.7344 0.459393C13.8863 0.678768 14.0138 0.916893 14.1113 1.16627C15.2606 4.09877 12.4275 6.33189 10.5656 8.07002C9.67313 8.90439 8.96063 9.78939 8.31938 10.8225C8.25563 10.9219 8.11501 11.2556 7.93313 11.1863C7.71751 11.1038 7.69501 10.6106 7.62751 10.4269C7.50001 10.0744 7.30313 9.69002 7.05001 9.41439C6.56063 8.87814 5.87626 8.51627 5.13563 8.56502C5.10751 8.56689 5.02688 8.58002 4.92751 8.60252C4.77188 8.63627 4.35563 8.69064 4.46813 8.94189C4.52626 9.07127 4.69688 9.06002 4.81876 9.09564C6.38251 9.57564 6.34688 11.2144 6.09376 12.5306C5.63626 14.9269 4.36876 17.1919 5.26876 19.6556C6.33001 22.56 9.65251 24.3731 12.6675 23.8744C13.4906 23.7394 14.4394 23.4731 15.1781 23.0756C15.9638 22.6519 16.8244 22.0725 17.4375 21.42C18.2269 20.5819 18.7294 19.5075 18.8775 18.3694C19.0519 17.0531 18.6319 15.8119 18.2494 14.5688C17.7881 13.0688 17.2575 10.62 19.1738 9.88689C19.2675 9.84939 19.455 9.82127 19.5206 9.72189C19.7644 9.35814 18.5944 9.57002 18.4856 9.59252Z" fill="#ED6C30"/>
<path d="M12.7744 19.8881C13.1719 20.2219 13.7288 20.0587 14.1038 19.7737C14.3044 19.6219 14.4769 19.4269 14.5894 19.2C14.6363 19.1025 14.6906 18.9787 14.6906 18.8681C14.6906 18.72 14.6025 18.5737 14.64 18.4219C14.955 18.36 15.345 19.2656 15.3844 19.4756C15.6994 21.1312 14.1394 22.4962 12.6338 22.7606C10.0931 23.205 8.6325 20.9794 8.925 19.0031C9.10688 17.7731 9.93188 16.9275 10.7719 16.0837C11.4675 15.3844 12.1125 14.7844 12.3375 13.875C12.3769 13.7137 12.3675 13.4662 12.3206 13.3069C12.2813 13.17 12.2063 13.0444 12.2025 12.8962C12.1913 12.585 12.4931 12.9919 12.5625 13.0706C13.3988 14.0137 13.6369 15.4069 13.4138 16.6256C13.2694 17.4131 12.7069 17.9756 12.51 18.7294C12.3956 19.1587 12.4069 19.5769 12.7744 19.8881Z" fill="#FCC21B"/>
</svg>
